<svg preserveAspectRatio="none" width="100%" height="100%" overflow="visible" style="display: block;" viewBox="0 0 44 44" fill="none" xmlns="http://www.w3.org/2000/svg">
<g id="CurrencyBtc">
<path d="M0 15C0 6.71573 6.71573 0 15 0H29C37.2843 0 44 6.71573 44 15V29C44 37.2843 37.2843 44 29 44H15C6.71573 44 0 37.2843 0 29V15Z" fill="var(--fill-0, white)" fill-opacity="0.08"/>
<path id="Vector" d="M26.6023 21.1056C27.0822 20.5214 27.4071 19.8257 27.5471 19.0827C27.6872 18.3398 27.6377 17.5735 27.4034 16.8547C27.1691 16.1359 26.7575 15.4877 26.2065 14.97C25.6555 14.4522 24.983 14.0817 24.251 13.8925V12.625C24.251 12.3266 24.1325 12.0405 23.9215 11.8295C23.7105 11.6185 23.4244 11.5 23.126 11.5C22.8277 11.5 22.5415 11.6185 22.3305 11.8295C22.1196 12.0405 22.001 12.3266 22.001 12.625V13.75H20.501V12.625C20.501 12.3266 20.3825 12.0405 20.1715 11.8295C19.9605 11.6185 19.6744 11.5 19.376 11.5C19.0777 11.5 18.7915 11.6185 18.5805 11.8295C18.3696 12.0405 18.251 12.3266 18.251 12.625V13.75H16.001C15.7027 13.75 15.4165 13.8685 15.2055 14.0795C14.9946 14.2905 14.876 14.5766 14.876 14.875C14.876 15.1734 14.9946 15.4595 15.2055 15.6705C15.4165 15.8815 15.7027 16 16.001 16H16.376V28H16.001C15.7027 28 15.4165 28.1185 15.2055 28.3295C14.9946 28.5405 14.876 28.8266 14.876 29.125C14.876 29.4234 14.9946 29.7095 15.2055 29.9205C15.4165 30.1315 15.7027 30.25 16.001 30.25H18.251V31.375C18.251 31.6734 18.3696 31.9595 18.5805 32.1705C18.7915 32.3815 19.0777 32.5 19.376 32.5C19.6744 32.5 19.9605 32.3815 20.1715 32.1705C20.3825 31.9595 20.501 31.6734 20.501 31.375V30.25H22.001V31.375C22.001 31.6734 22.1196 31.9595 22.3305 32.1705C22.5415 32.3815 22.8277 32.5 23.126 32.5C23.4244 32.5 23.7105 32.3815 23.9215 32.1705C24.1325 31.9595 24.251 31.6734 24.251 31.375V30.25C25.3323 30.2495 26.3827 29.8896 27.237 29.2269C28.0914 28.5642 28.7011 27.6362 28.9704 26.589C29.2397 25.5418 29.1531 24.4348 28.7244 23.4422C28.2957 22.4495 27.5492 21.6276 26.6023 21.1056ZM25.376 18.25C25.376 18.8467 25.139 19.419 24.717 19.841C24.2951 20.2629 23.7228 20.5 23.126 20.5H18.626V16H23.126C23.7228 16 24.2951 16.2371 24.717 16.659C25.139 17.081 25.376 17.6533 25.376 18.25ZM24.251 28H18.626V22.75H24.251C24.9472 22.75 25.6149 23.0266 26.1072 23.5188C26.5995 24.0111 26.876 24.6788 26.876 25.375C26.876 26.0712 26.5995 26.7389 26.1072 27.2312C25.6149 27.7234 24.9472 28 24.251 28Z" fill="var(--fill-0, #3B8AFF)"/>
</g>
</svg>
