<svg width="24" height="24" viewBox="0 0 24 24" fill="none" xmlns="http://www.w3.org/2000/svg" aria-hidden="true">
  <path
    d="M18.7959 6.795L8.71875 16.875H15.75C16.0484 16.875 16.3345 16.9935 16.5455 17.2045C16.7565 17.4155 16.875 17.7016 16.875 18C16.875 18.2984 16.7565 18.5845 16.5455 18.7955C16.3345 19.0065 16.0484 19.125 15.75 19.125H6C5.70163 19.125 5.41548 19.0065 5.2045 18.7955C4.99353 18.5845 4.875 18.2984 4.875 18V8.25C4.875 7.95163 4.99353 7.66548 5.2045 7.45451C5.41548 7.24353 5.70163 7.125 6 7.125C6.29837 7.125 6.58452 7.24353 6.7955 7.45451C7.00647 7.66548 7.125 7.95163 7.125 8.25V15.2813L17.2041 5.20406C17.4154 4.99272 17.7021 4.87406 18.0009 4.87406C18.2998 4.87406 18.5865 4.99272 18.7978 5.20406C19.0092 5.4154 19.1279 5.70205 19.1279 6.00094C19.1279 6.29982 19.0092 6.58647 18.7978 6.79781L18.7959 6.795Z"
    fill="white"
  />
</svg>
