<svg width="23" height="19" viewBox="0 0 23 19" fill="none" xmlns="http://www.w3.org/2000/svg">
<path d="M1.5809 8.17947C7.75608 5.49838 11.8729 3.73077 13.9313 2.87666C19.8152 0.438013 21.0364 0.0144739 21.8339 0.000125024C22.0093 -0.00267877 22.3998 0.0405323 22.6546 0.245869C22.8664 0.419045 22.926 0.653245 22.9558 0.81768C22.9822 0.98195 23.0186 1.35634 22.9889 1.64859C22.6712 4.98676 21.2912 13.0874 20.5896 16.8264C20.2951 18.4084 19.7093 18.9388 19.1434 18.9906C17.9124 19.1034 16.9791 18.1805 15.7878 17.4023C13.9246 16.1841 12.8723 15.4261 11.0621 14.2377C8.9706 12.8641 10.3274 12.1091 11.5188 10.8754C11.8298 10.5525 17.2505 5.63922 17.3531 5.19359C17.3663 5.13784 17.3796 4.93003 17.2538 4.82051C17.1314 4.71067 16.9494 4.74828 16.817 4.77796C16.6283 4.82019 13.6533 6.78219 7.88183 10.6636C7.03796 11.2422 6.27351 11.5242 5.58517 11.5094C4.83065 11.4932 3.37455 11.0832 2.2924 10.7329C0.968678 10.3031 -0.0869939 10.0758 0.00566691 9.34585C0.0519973 8.96585 0.578178 8.57695 1.5809 8.17947Z" fill="white"/>
</svg>
