<svg preserveAspectRatio="none" width="100%" height="100%" overflow="visible" style="display: block;" viewBox="0 0 24 24" fill="none" xmlns="http://www.w3.org/2000/svg">
<g id="StarFour">
<path id="Vector" d="M21.6431 10.2422L15.8606 8.13938L13.7578 2.35687C13.6267 1.996 13.3876 1.68424 13.0731 1.46393C12.7586 1.24362 12.384 1.12544 12 1.12544C11.616 1.12544 11.2414 1.24362 10.9269 1.46393C10.6124 1.68424 10.3733 1.996 10.2422 2.35687L8.13938 8.13938L2.35687 10.2422C1.996 10.3733 1.68424 10.6124 1.46393 10.9269C1.24362 11.2414 1.12544 11.616 1.12544 12C1.12544 12.384 1.24362 12.7586 1.46393 13.0731C1.68424 13.3876 1.996 13.6267 2.35687 13.7578L8.13938 15.8606L10.2422 21.6431C10.3733 22.004 10.6124 22.3158 10.9269 22.5361C11.2414 22.7564 11.616 22.8746 12 22.8746C12.384 22.8746 12.7586 22.7564 13.0731 22.5361C13.3876 22.3158 13.6267 22.004 13.7578 21.6431L15.8606 15.8606L21.6431 13.7578C22.004 13.6267 22.3158 13.3876 22.5361 13.0731C22.7564 12.7586 22.8746 12.384 22.8746 12C22.8746 11.616 22.7564 11.2414 22.5361 10.9269C22.3158 10.6124 22.004 10.3733 21.6431 10.2422ZM14.5988 13.9256C14.4442 13.9818 14.3038 14.0712 14.1875 14.1875C14.0712 14.3038 13.9818 14.4442 13.9256 14.5988L12 19.8947L10.0744 14.5988C10.0182 14.4442 9.92882 14.3038 9.81252 14.1875C9.69622 14.0712 9.55583 13.9818 9.40125 13.9256L4.10531 12L9.40125 10.0744C9.55583 10.0182 9.69622 9.92882 9.81252 9.81252C9.92882 9.69622 10.0182 9.55583 10.0744 9.40125L12 4.10531L13.9256 9.40125C13.9818 9.55583 14.0712 9.69622 14.1875 9.81252C14.3038 9.92882 14.4442 10.0182 14.5988 10.0744L19.8947 12L14.5988 13.9256Z" fill="var(--fill-0, #3B8AFF)"/>
</g>
</svg>
