<svg preserveAspectRatio="none" width="100%" height="100%" overflow="visible" style="display: block;" viewBox="0 0 24 25" fill="none" xmlns="http://www.w3.org/2000/svg">
<g id="ArrowFatDown">
<path id="Vector" d="M22.0397 12.833C21.9545 12.6188 21.8103 12.4357 21.6252 12.3069C21.4402 12.1781 21.2226 12.1093 21 12.1094H17.625V4.6875C17.625 4.1695 17.4275 3.67271 17.0758 3.30643C16.7242 2.94015 16.2473 2.73438 15.75 2.73438H8.25C7.75272 2.73438 7.27581 2.94015 6.92417 3.30643C6.57254 3.67271 6.375 4.1695 6.375 4.6875V12.1094H3C2.77745 12.1094 2.5599 12.1782 2.37487 12.307C2.18985 12.4358 2.04566 12.6189 1.96056 12.8331C1.87545 13.0473 1.85325 13.283 1.89676 13.5104C1.94027 13.7377 2.04754 13.9465 2.205 14.1104L11.205 23.4854C11.3095 23.5946 11.4337 23.6813 11.5705 23.7404C11.7072 23.7996 11.8538 23.83 12.0019 23.83C12.1499 23.83 12.2966 23.7996 12.4333 23.7404C12.57 23.6813 12.6942 23.5946 12.7988 23.4854L21.7988 14.1104C21.9556 13.9461 22.0623 13.7371 22.1051 13.5097C22.148 13.2824 22.1253 13.0469 22.0397 12.833ZM12 20.9961L5.71875 14.4531H7.5C7.79837 14.4531 8.08452 14.3297 8.2955 14.1099C8.50647 13.8901 8.625 13.5921 8.625 13.2812V5.07812H15.375V13.2812C15.375 13.5921 15.4935 13.8901 15.7045 14.1099C15.9155 14.3297 16.2016 14.4531 16.5 14.4531H18.2813L12 20.9961Z" fill="var(--fill-0, #DBDBDB)"/>
</g>
</svg>
